<?xml version="1.0" encoding="utf-8"?>
<!-- Generator: Adobe Illustrator 15.0.0, SVG Export Plug-In . SVG Version: 6.00 Build 0)  -->
<!DOCTYPE svg PUBLIC "-//W3C//DTD SVG 1.1//EN" "http://www.w3.org/Graphics/SVG/1.1/DTD/svg11.dtd">
<svg version="1.1" id="Layer_1" xmlns="http://www.w3.org/2000/svg" xmlns:xlink="http://www.w3.org/1999/xlink" x="0px" y="0px"
	 width="100px" height="84px" viewBox="0 0 100 84" enable-background="new 0 0 100 84" xml:space="preserve">
<path d="M50,0L0,51h12v33h31h45V51h12L50,0z M66.48,54.98c-1.765,2.327-3.883,4.163-7.764,6.985l-1.059-1.34
	c0.424-0.495,0.775-0.848,0.988-1.059c4.093-4.164,4.941-5.151,5.999-7.199c1.2-2.26,1.694-4.165,1.694-6.211
	c0-4.658-4.589-9.317-15.528-15.881v36.489c0,4.095-0.07,4.517-1.059,6.353c-2.188,4.165-7.341,7.27-12.21,7.27
	c-2.753,0-4.871-0.777-6.141-2.329c-1.129-1.2-1.765-2.964-1.765-4.588c0-3.105,1.976-5.999,5.364-7.834
	c1.906-0.988,4.588-1.765,6.211-1.765c1.059,0,2.471,0.141,4.023,0.424c0.988,0.141,1.27,0.212,2.329,0.776V17.501H49.4
	c1.482,3.105,3.036,4.941,7.2,8.54c7.34,6.353,8.398,7.341,10.656,10.658c2.048,2.964,3.106,5.788,3.106,8.469
	C70.362,48.274,68.951,51.804,66.48,54.98z"/>
</svg>
