<?xml version="1.0" encoding="UTF-8" standalone="no"?>
<svg
   xmlns:dc="http://purl.org/dc/elements/1.1/"
   xmlns:cc="http://creativecommons.org/ns#"
   xmlns:rdf="http://www.w3.org/1999/02/22-rdf-syntax-ns#"
   xmlns:svg="http://www.w3.org/2000/svg"
   xmlns="http://www.w3.org/2000/svg"
   xmlns:sodipodi="http://sodipodi.sourceforge.net/DTD/sodipodi-0.dtd"
   xmlns:inkscape="http://www.inkscape.org/namespaces/inkscape"
   width="920"
   height="500"
   class="viz code-frequency"
   id="svg2"
   version="1.1"
   inkscape:version="0.48.4 r9939"
   sodipodi:docname="code_progress.svg">
  <metadata
     id="metadata118">
    <rdf:RDF>
      <cc:Work
         rdf:about="">
        <dc:format>image/svg+xml</dc:format>
        <dc:type
           rdf:resource="http://purl.org/dc/dcmitype/StillImage" />
      </cc:Work>
    </rdf:RDF>
  </metadata>
  <defs
     id="defs116" />
  <sodipodi:namedview
     pagecolor="#ffffff"
     bordercolor="#666666"
     borderopacity="1"
     objecttolerance="10"
     gridtolerance="10"
     guidetolerance="10"
     inkscape:pageopacity="0"
     inkscape:pageshadow="2"
     inkscape:window-width="1440"
     inkscape:window-height="876"
     id="namedview114"
     showgrid="false"
     inkscape:zoom="0.90509668"
     inkscape:cx="464.79076"
     inkscape:cy="224.25845"
     inkscape:window-x="0"
     inkscape:window-y="24"
     inkscape:window-maximized="1"
     inkscape:current-layer="svg2" />
  <line
     y1="286.3197"
     x1="916.58075"
     id="line4073"
     y2="286.3197"
     x2="41.089745"
     style="opacity:0.5;fill:#ff0000;fill-opacity:1;stroke:#000000;stroke-width:0.97551042;stroke-miterlimit:4;stroke-opacity:1;stroke-dasharray:none" />
  <line
     style="opacity:0.5;fill:#ff0000;fill-opacity:1;stroke:#000000;stroke-width:0.97551042;stroke-miterlimit:4;stroke-opacity:1;stroke-dasharray:none"
     x2="41.089745"
     y2="327.53531"
     id="line4071"
     x1="916.58075"
     y1="327.53531" />
  <line
     style="opacity:0.5;fill:#ff0000;fill-opacity:1;stroke:#000000;stroke-width:0.97551042;stroke-miterlimit:4;stroke-opacity:1;stroke-dasharray:none"
     x2="41.089745"
     y2="57.962929"
     id="line4067"
     x1="916.58075"
     y1="57.962929" />
  <line
     y1="12.29158"
     x1="916.58075"
     id="line4069"
     y2="12.29158"
     x2="41.089745"
     style="opacity:0.5;fill:#ff0000;fill-opacity:1;stroke:#000000;stroke-width:0.97551042;stroke-miterlimit:4;stroke-opacity:1;stroke-dasharray:none" />
  <line
     y1="103.63428"
     x1="916.58075"
     id="line4047"
     y2="103.63428"
     x2="41.089745"
     style="opacity:0.5;fill:#ff0000;fill-opacity:1;stroke:#000000;stroke-width:0.97551042;stroke-miterlimit:4;stroke-opacity:1;stroke-dasharray:none" />
  <line
     y1="191.63518"
     x1="916.58075"
     id="line4051"
     y2="191.63518"
     x2="41.089745"
     style="opacity:0.5;fill:#ff0000;fill-opacity:1;stroke:#000000;stroke-width:0.97551042;stroke-miterlimit:4;stroke-opacity:1;stroke-dasharray:none" />
  <line
     style="opacity:0.5;fill:#ff0000;fill-opacity:1;stroke:#000000;stroke-width:0.97551042;stroke-miterlimit:4;stroke-opacity:1;stroke-dasharray:none"
     x2="41.089745"
     y2="148.1917"
     id="line4053"
     x1="916.58075"
     y1="148.1917" />
  <line
     style="opacity:0.5;fill:#ff0000;fill-opacity:1;stroke:#000000;stroke-width:0.97551042;stroke-miterlimit:4;stroke-opacity:1;stroke-dasharray:none"
     x2="41.089745"
     y2="237.30653"
     id="line4049"
     x1="916.58075"
     y1="237.30653" />
  <line
     style="opacity:0.5;fill:#ff0000;fill-opacity:1;stroke:#000000;stroke-width:0.97551042;stroke-miterlimit:4;stroke-opacity:1;stroke-dasharray:none"
     x2="41.089745"
     y2="462.32147"
     id="line4045"
     x1="916.58075"
     y1="462.32147" />
  <line
     style="opacity:0.5;fill:#ff0000;fill-opacity:1;stroke:#000000;stroke-width:0.97551042;stroke-miterlimit:4;stroke-opacity:1;stroke-dasharray:none"
     x2="41.089745"
     y2="417.76407"
     id="line4039"
     x1="916.58075"
     y1="417.76407" />
  <g
     class="tick"
     transform="translate(116.93878,480)"
     id="g8">
    <line
       y2="6"
       x2="0"
       id="line10"
       x1="0"
       y1="0" />
    <text
       y="9"
       x="0"
       dy="0"
       style="text-anchor:middle"
       id="text12">02/01</text>
  </g>
  <g
     class="tick"
     transform="translate(282.65306,480)"
     id="g14">
    <line
       y2="6"
       x2="0"
       id="line16"
       x1="0"
       y1="0" />
    <text
       y="9"
       x="0"
       dy="0"
       style="text-anchor:middle"
       id="text18">03/01</text>
  </g>
  <g
     class="tick"
     transform="translate(465.87585,480)"
     id="g20">
    <line
       y2="6"
       x2="0"
       id="line22"
       x1="0"
       y1="0" />
    <text
       y="9"
       x="0"
       dy="0"
       style="text-anchor:middle"
       id="text24">04/01</text>
  </g>
  <g
     class="tick"
     transform="translate(643.42687,480)"
     id="g26">
    <line
       y2="6"
       x2="0"
       id="line28"
       x1="0"
       y1="0" />
    <text
       y="9"
       x="0"
       dy="0"
       style="text-anchor:middle"
       id="text30">05/01</text>
  </g>
  <g
     class="tick"
     transform="translate(826.89626,480)"
     id="g32">
    <line
       y2="6"
       x2="0"
       id="line34"
       x1="0"
       y1="0" />
    <text
       y="9"
       x="0"
       dy="0"
       style="text-anchor:middle"
       id="text36">06/01</text>
  </g>
  <g
     class="tick"
     transform="translate(960,466.63166)"
     id="g42">
    <line
       x2="-920"
       y2="0"
       id="line44"
       x1="0"
       y1="0" />
    <text
       x="-925"
       y="0"
       dy="0"
       style="text-anchor:end"
       id="text46">20k</text>
  </g>
  <g
     class="tick"
     transform="translate(960,421.59006)"
     id="g48">
    <line
       x2="-920"
       y2="0"
       id="line50"
       x1="0"
       y1="0" />
    <text
       x="-925"
       y="0"
       dy="0"
       style="text-anchor:end"
       id="text52">15k</text>
  </g>
  <line
     y1="372.09271"
     x1="916.58075"
     id="line56"
     y2="372.09271"
     x2="41.089745"
     style="opacity:0.5;fill:#ff0000;fill-opacity:1;stroke:#000000;stroke-width:0.97551042;stroke-miterlimit:4;stroke-opacity:1;stroke-dasharray:none" />
  <text
     id="text58"
     style="text-anchor:end"
     dy="0"
     y="376.54846"
     x="35">10k</text>
  <g
     class="tick"
     transform="translate(960,331.50688)"
     id="g60">
    <line
       x2="-920"
       y2="0"
       id="line62"
       x1="0"
       y1="0" />
    <text
       x="-925"
       y="0"
       dy="0"
       style="text-anchor:end"
       id="text64">5k</text>
  </g>
  <g
     class="tick"
     transform="translate(960,286.46529)"
     id="g66">
    <line
       x2="-920"
       y2="0"
       id="line68"
       x1="0"
       y1="0" />
    <text
       x="-925"
       y="0"
       dy="0"
       style="text-anchor:end"
       id="text70">0</text>
  </g>
  <g
     class="tick"
     transform="translate(960,241.4237)"
     id="g72">
    <line
       x2="-920"
       y2="0"
       id="line74"
       x1="0"
       y1="0" />
    <text
       x="-925"
       y="0"
       dy="0"
       style="text-anchor:end"
       id="text76">5k</text>
  </g>
  <g
     class="tick"
     transform="translate(960,196.38211)"
     id="g78">
    <line
       x2="-920"
       y2="0"
       id="line80"
       x1="0"
       y1="0" />
    <text
       x="-925"
       y="0"
       dy="0"
       style="text-anchor:end"
       id="text82">10k</text>
  </g>
  <g
     class="tick"
     transform="translate(960,151.34051)"
     id="g84">
    <line
       x2="-920"
       y2="0"
       id="line86"
       x1="0"
       y1="0" />
    <text
       x="-925"
       y="0"
       dy="0"
       style="text-anchor:end"
       id="text88">15k</text>
  </g>
  <g
     class="tick"
     transform="translate(960,106.29892)"
     id="g90">
    <line
       x2="-920"
       y2="0"
       id="line92"
       x1="0"
       y1="0" />
    <text
       x="-925"
       y="0"
       dy="0"
       style="text-anchor:end"
       id="text94">20k</text>
  </g>
  <g
     class="tick"
     transform="translate(960,61.257331)"
     id="g96">
    <line
       x2="-920"
       y2="0"
       id="line98"
       x1="0"
       y1="0" />
    <text
       x="-925"
       y="0"
       dy="0"
       style="text-anchor:end"
       id="text100">25k</text>
  </g>
  <g
     class="tick"
     transform="translate(960,16.21574)"
     id="g102">
    <line
       x2="-920"
       y2="0"
       id="line104"
       x1="0"
       y1="0" />
    <text
       x="-925"
       y="0"
       dy="0"
       style="text-anchor:end"
       id="text106">30k</text>
  </g>
  <path
     inkscape:connector-curvature="0"
     id="path110"
     d="m 40,286.46529 41.428571,0 41.428569,0 41.42857,0 41.42858,0 41.42857,0 41.42857,0 41.42857,0 41.42857,0 41.42857,0 41.42857,0 41.42858,0 41.42857,0 41.42857,0 41.42857,0 41.42857,0 41.42857,0 41.42857,0 41.42858,0 41.42857,0 41.42857,0 41.42857,0 0,0 -41.42857,0 -41.42857,-1.36927 -41.42857,-12.43147 -41.42858,-151.53794 -41.42857,158.34822 -41.42857,1.68456 L 620,275.7544 l -41.42857,-2.38721 -41.42857,8.72006 -41.42857,-3.01779 -41.42858,-0.84678 -41.42857,-0.12612 -41.42857,-0.89182 L 330,263.88144 288.57143,284.11412 247.14286,285.65454 205.71429,269.11527 164.28571,219.8758 122.85714,282.42055 81.428571,284.88883 40,10 z"
     class="addition"
     style="fill:#6cc644;fill-opacity:1" />
  <path
     inkscape:connector-curvature="0"
     id="path112"
     d="m 40,286.46529 41.428571,0 41.428569,0 41.42857,0 41.42858,0 41.42857,0 41.42857,0 41.42857,0 41.42857,0 41.42857,0 41.42857,0 41.42858,0 41.42857,0 41.42857,0 41.42857,0 41.42857,0 41.42857,0 41.42857,0 41.42858,0 41.42857,0 41.42857,0 41.42857,0 0,0 -41.42857,0 -41.42857,0.27926 -41.42857,12.72875 -41.42858,-0.99091 -41.42857,-7.84625 -41.42857,-1.64852 -41.42857,6.14367 -41.42857,4.30598 -41.42857,-10.97213 -41.42857,3.63936 -41.42858,2.20703 -41.42857,-2.47728 -41.42857,3.27002 L 330,315.29191 l -41.42857,-27.53843 -41.42857,-0.98191 -41.42857,0.55852 -41.42858,0.49546 -41.42857,0.28826 L 81.428571,287.6724 40,480 z"
     class="deletion"
     style="fill:#bd2c00;fill-opacity:1" />
</svg>
