<?xml version="1.0" encoding="UTF-8" standalone="no"?>
<!-- Created with Inkscape (http://www.inkscape.org/) -->

<svg
   xmlns:dc="http://purl.org/dc/elements/1.1/"
   xmlns:cc="http://creativecommons.org/ns#"
   xmlns:rdf="http://www.w3.org/1999/02/22-rdf-syntax-ns#"
   xmlns:svg="http://www.w3.org/2000/svg"
   xmlns="http://www.w3.org/2000/svg"
   xmlns:sodipodi="http://sodipodi.sourceforge.net/DTD/sodipodi-0.dtd"
   xmlns:inkscape="http://www.inkscape.org/namespaces/inkscape"
   width="132.93013"
   height="37.044712"
   id="svg6121"
   version="1.1"
   inkscape:version="0.48.4 r9939"
   sodipodi:docname="ramalogo_banner.svg">
  <defs
     id="defs6123" />
  <sodipodi:namedview
     id="base"
     pagecolor="#ffffff"
     bordercolor="#666666"
     borderopacity="1.0"
     inkscape:pageopacity="0.0"
     inkscape:pageshadow="2"
     inkscape:zoom="5.6"
     inkscape:cx="57.749618"
     inkscape:cy="7.0675177"
     inkscape:document-units="px"
     inkscape:current-layer="layer1"
     showgrid="false"
     fit-margin-top="0"
     fit-margin-left="0"
     fit-margin-right="0"
     fit-margin-bottom="0"
     inkscape:window-width="1440"
     inkscape:window-height="876"
     inkscape:window-x="0"
     inkscape:window-y="24"
     inkscape:window-maximized="1" />
  <metadata
     id="metadata6126">
    <rdf:RDF>
      <cc:Work
         rdf:about="">
        <dc:format>image/svg+xml</dc:format>
        <dc:type
           rdf:resource="http://purl.org/dc/dcmitype/StillImage" />
        <dc:title></dc:title>
      </cc:Work>
    </rdf:RDF>
  </metadata>
  <g
     inkscape:label="Layer 1"
     inkscape:groupmode="layer"
     id="layer1"
     transform="translate(-322.10636,-359.54991)">
    <g
       transform="translate(168.23364,-938.04854)"
       id="g5995"
       inkscape:export-filename="/home/carsy/ws/rama-spotify/img/ramalogo_banner.png"
       inkscape:export-xdpi="89.809998"
       inkscape:export-ydpi="89.809998">
      <g
         id="g5863">
        <path
           sodipodi:nodetypes="cc"
           inkscape:connector-curvature="0"
           id="path5830"
           d="m 157.8236,1312.0616 -0.1091,-7.7533"
           style="fill:none;stroke:#ffffff;stroke-width:1.53163826;stroke-linecap:round;stroke-linejoin:miter;stroke-miterlimit:4;stroke-opacity:1;stroke-dasharray:none" />
        <path
           style="fill:none;stroke:#ffffff;stroke-width:1.54628432;stroke-linecap:round;stroke-linejoin:miter;stroke-miterlimit:4;stroke-opacity:1;stroke-dasharray:none"
           d="m 161.7284,1301.2874 9.12762,-0.094"
           id="path5857"
           inkscape:connector-curvature="0"
           sodipodi:nodetypes="cc" />
        <path
           sodipodi:type="arc"
           style="fill:none;stroke:#7fb702;stroke-width:2.1361165;stroke-linecap:round;stroke-linejoin:round;stroke-miterlimit:4;stroke-opacity:1;stroke-dasharray:none;stroke-dashoffset:0"
           id="path5834"
           sodipodi:cx="167.8125"
           sodipodi:cy="949.00519"
           sodipodi:rx="3.4375"
           sodipodi:ry="3.4375"
           d="m 171.25,949.00519 c 0,1.89848 -1.53902,3.4375 -3.4375,3.4375 -1.89848,0 -3.4375,-1.53902 -3.4375,-3.4375 0,-1.89848 1.53902,-3.4375 3.4375,-3.4375 1.89848,0 3.4375,1.53902 3.4375,3.4375 z"
           transform="matrix(0.86041671,0,0,0.81599457,13.604255,526.89158)" />
        <path
           transform="matrix(0.86041671,0,0,0.81599457,13.355916,541.31378)"
           d="m 171.25,949.00519 c 0,1.89848 -1.53902,3.4375 -3.4375,3.4375 -1.89848,0 -3.4375,-1.53902 -3.4375,-3.4375 0,-1.89848 1.53902,-3.4375 3.4375,-3.4375 1.89848,0 3.4375,1.53902 3.4375,3.4375 z"
           sodipodi:ry="3.4375"
           sodipodi:rx="3.4375"
           sodipodi:cy="949.00519"
           sodipodi:cx="167.8125"
           id="path5836"
           style="fill:none;stroke:#ffffff;stroke-width:2.1361165;stroke-linecap:round;stroke-linejoin:round;stroke-miterlimit:4;stroke-opacity:1;stroke-dasharray:none;stroke-dashoffset:0"
           sodipodi:type="arc" />
        <path
           sodipodi:type="arc"
           style="fill:none;stroke:#ffffff;stroke-width:2.1361165;stroke-linecap:round;stroke-linejoin:round;stroke-miterlimit:4;stroke-opacity:1;stroke-dasharray:none;stroke-dashoffset:0"
           id="path5845"
           sodipodi:cx="167.8125"
           sodipodi:cy="949.00519"
           sodipodi:rx="3.4375"
           sodipodi:ry="3.4375"
           d="m 171.25,949.00519 c 0,1.89848 -1.53902,3.4375 -3.4375,3.4375 -1.89848,0 -3.4375,-1.53902 -3.4375,-3.4375 0,-1.89848 1.53902,-3.4375 3.4375,-3.4375 1.89848,0 3.4375,1.53902 3.4375,3.4375 z"
           transform="matrix(0.86041671,0,0,0.81599457,13.355916,556.46607)" />
        <path
           sodipodi:type="arc"
           style="fill:none;stroke:#ffffff;stroke-width:2.1361165;stroke-linecap:round;stroke-linejoin:round;stroke-miterlimit:4;stroke-opacity:1;stroke-dasharray:none;stroke-dashoffset:0"
           id="path5847"
           sodipodi:cx="167.8125"
           sodipodi:cy="949.00519"
           sodipodi:rx="3.4375"
           sodipodi:ry="3.4375"
           d="m 171.25,949.00519 c 0,1.89848 -1.53902,3.4375 -3.4375,3.4375 -1.89848,0 -3.4375,-1.53902 -3.4375,-3.4375 0,-1.89848 1.53902,-3.4375 3.4375,-3.4375 1.89848,0 3.4375,1.53902 3.4375,3.4375 z"
           transform="matrix(0.86041671,0,0,0.81599457,29.770895,541.31378)" />
        <path
           transform="matrix(0.86041671,0,0,0.81599457,29.770895,556.46607)"
           d="m 171.25,949.00519 c 0,1.89848 -1.53902,3.4375 -3.4375,3.4375 -1.89848,0 -3.4375,-1.53902 -3.4375,-3.4375 0,-1.89848 1.53902,-3.4375 3.4375,-3.4375 1.89848,0 3.4375,1.53902 3.4375,3.4375 z"
           sodipodi:ry="3.4375"
           sodipodi:rx="3.4375"
           sodipodi:cy="949.00519"
           sodipodi:cx="167.8125"
           id="path5849"
           style="fill:none;stroke:#ffffff;stroke-width:2.1361165;stroke-linecap:round;stroke-linejoin:round;stroke-miterlimit:4;stroke-opacity:1;stroke-dasharray:none;stroke-dashoffset:0"
           sodipodi:type="arc" />
        <path
           transform="matrix(0.86041671,0,0,0.81599457,29.770895,527.04538)"
           d="m 171.25,949.00519 c 0,1.89848 -1.53902,3.4375 -3.4375,3.4375 -1.89848,0 -3.4375,-1.53902 -3.4375,-3.4375 0,-1.89848 1.53902,-3.4375 3.4375,-3.4375 1.89848,0 3.4375,1.53902 3.4375,3.4375 z"
           sodipodi:ry="3.4375"
           sodipodi:rx="3.4375"
           sodipodi:cy="949.00519"
           sodipodi:cx="167.8125"
           id="path5851"
           style="fill:none;stroke:#ffffff;stroke-width:2.1361165;stroke-linecap:round;stroke-linejoin:round;stroke-miterlimit:4;stroke-opacity:1;stroke-dasharray:none;stroke-dashoffset:0"
           sodipodi:type="arc" />
        <path
           style="fill:none;stroke:#ffffff;stroke-width:1.53163826;stroke-linecap:round;stroke-linejoin:miter;stroke-miterlimit:4;stroke-opacity:1;stroke-dasharray:none"
           d="m 157.8236,1327.0876 -0.1091,-7.7533"
           id="path5853"
           inkscape:connector-curvature="0"
           sodipodi:nodetypes="cc" />
        <path
           sodipodi:nodetypes="cc"
           inkscape:connector-curvature="0"
           id="path5855"
           d="m 174.11231,1312.5667 -0.1091,-7.7533"
           style="fill:none;stroke:#ffffff;stroke-width:1.53163826;stroke-linecap:round;stroke-linejoin:miter;stroke-miterlimit:4;stroke-opacity:1;stroke-dasharray:none" />
        <path
           sodipodi:nodetypes="cc"
           inkscape:connector-curvature="0"
           id="path5859"
           d="m 161.22332,1315.6821 9.12762,-0.094"
           style="fill:none;stroke:#ffffff;stroke-width:1.54628432;stroke-linecap:round;stroke-linejoin:miter;stroke-miterlimit:4;stroke-opacity:1;stroke-dasharray:none" />
        <path
           style="fill:none;stroke:#ffffff;stroke-width:1.5;stroke-linecap:round;stroke-linejoin:miter;stroke-miterlimit:4;stroke-opacity:1;stroke-dasharray:none"
           d="m 160.1635,1317.8428 11.12099,10.6106"
           id="path5861"
           inkscape:connector-curvature="0"
           sodipodi:nodetypes="cc" />
      </g>
      <path
         sodipodi:nodetypes="cc"
         inkscape:connector-curvature="0"
         id="path5879"
         d="m 188.38071,1312.1879 -0.1091,-7.7533"
         style="fill:none;stroke:#ffffff;stroke-width:1.53163826;stroke-linecap:round;stroke-linejoin:miter;stroke-miterlimit:4;stroke-opacity:1;stroke-dasharray:none" />
      <path
         style="fill:none;stroke:#ffffff;stroke-width:1.54628432;stroke-linecap:round;stroke-linejoin:miter;stroke-miterlimit:4;stroke-opacity:1;stroke-dasharray:none"
         d="m 192.28551,1301.4137 9.12762,-0.094"
         id="path5881"
         inkscape:connector-curvature="0"
         sodipodi:nodetypes="cc" />
      <path
         sodipodi:type="arc"
         style="fill:none;stroke:#7fb702;stroke-width:2.1361165;stroke-linecap:round;stroke-linejoin:round;stroke-miterlimit:4;stroke-opacity:1;stroke-dasharray:none;stroke-dashoffset:0"
         id="path5883"
         sodipodi:cx="167.8125"
         sodipodi:cy="949.00519"
         sodipodi:rx="3.4375"
         sodipodi:ry="3.4375"
         d="m 171.25,949.00519 c 0,1.89848 -1.53902,3.4375 -3.4375,3.4375 -1.89848,0 -3.4375,-1.53902 -3.4375,-3.4375 0,-1.89848 1.53902,-3.4375 3.4375,-3.4375 1.89848,0 3.4375,1.53902 3.4375,3.4375 z"
         transform="matrix(0.86041671,0,0,0.81599457,44.16137,527.01785)" />
      <path
         transform="matrix(0.86041671,0,0,0.81599457,43.913031,541.44005)"
         d="m 171.25,949.00519 c 0,1.89848 -1.53902,3.4375 -3.4375,3.4375 -1.89848,0 -3.4375,-1.53902 -3.4375,-3.4375 0,-1.89848 1.53902,-3.4375 3.4375,-3.4375 1.89848,0 3.4375,1.53902 3.4375,3.4375 z"
         sodipodi:ry="3.4375"
         sodipodi:rx="3.4375"
         sodipodi:cy="949.00519"
         sodipodi:cx="167.8125"
         id="path5885"
         style="fill:none;stroke:#ffffff;stroke-width:2.1361165;stroke-linecap:round;stroke-linejoin:round;stroke-miterlimit:4;stroke-opacity:1;stroke-dasharray:none;stroke-dashoffset:0"
         sodipodi:type="arc" />
      <path
         sodipodi:type="arc"
         style="fill:none;stroke:#ffffff;stroke-width:2.1361165;stroke-linecap:round;stroke-linejoin:round;stroke-miterlimit:4;stroke-opacity:1;stroke-dasharray:none;stroke-dashoffset:0"
         id="path5887"
         sodipodi:cx="167.8125"
         sodipodi:cy="949.00519"
         sodipodi:rx="3.4375"
         sodipodi:ry="3.4375"
         d="m 171.25,949.00519 c 0,1.89848 -1.53902,3.4375 -3.4375,3.4375 -1.89848,0 -3.4375,-1.53902 -3.4375,-3.4375 0,-1.89848 1.53902,-3.4375 3.4375,-3.4375 1.89848,0 3.4375,1.53902 3.4375,3.4375 z"
         transform="matrix(0.86041671,0,0,0.81599457,43.913031,556.59234)" />
      <path
         sodipodi:type="arc"
         style="fill:none;stroke:#ffffff;stroke-width:2.1361165;stroke-linecap:round;stroke-linejoin:round;stroke-miterlimit:4;stroke-opacity:1;stroke-dasharray:none;stroke-dashoffset:0"
         id="path5889"
         sodipodi:cx="167.8125"
         sodipodi:cy="949.00519"
         sodipodi:rx="3.4375"
         sodipodi:ry="3.4375"
         d="m 171.25,949.00519 c 0,1.89848 -1.53902,3.4375 -3.4375,3.4375 -1.89848,0 -3.4375,-1.53902 -3.4375,-3.4375 0,-1.89848 1.53902,-3.4375 3.4375,-3.4375 1.89848,0 3.4375,1.53902 3.4375,3.4375 z"
         transform="matrix(0.86041671,0,0,0.81599457,60.32801,541.44005)" />
      <path
         transform="matrix(0.86041671,0,0,0.81599457,60.32801,556.59234)"
         d="m 171.25,949.00519 c 0,1.89848 -1.53902,3.4375 -3.4375,3.4375 -1.89848,0 -3.4375,-1.53902 -3.4375,-3.4375 0,-1.89848 1.53902,-3.4375 3.4375,-3.4375 1.89848,0 3.4375,1.53902 3.4375,3.4375 z"
         sodipodi:ry="3.4375"
         sodipodi:rx="3.4375"
         sodipodi:cy="949.00519"
         sodipodi:cx="167.8125"
         id="path5891"
         style="fill:none;stroke:#ffffff;stroke-width:2.1361165;stroke-linecap:round;stroke-linejoin:round;stroke-miterlimit:4;stroke-opacity:1;stroke-dasharray:none;stroke-dashoffset:0"
         sodipodi:type="arc" />
      <path
         transform="matrix(0.86041671,0,0,0.81599457,60.32801,527.17165)"
         d="m 171.25,949.00519 c 0,1.89848 -1.53902,3.4375 -3.4375,3.4375 -1.89848,0 -3.4375,-1.53902 -3.4375,-3.4375 0,-1.89848 1.53902,-3.4375 3.4375,-3.4375 1.89848,0 3.4375,1.53902 3.4375,3.4375 z"
         sodipodi:ry="3.4375"
         sodipodi:rx="3.4375"
         sodipodi:cy="949.00519"
         sodipodi:cx="167.8125"
         id="path5893"
         style="fill:none;stroke:#ffffff;stroke-width:2.1361165;stroke-linecap:round;stroke-linejoin:round;stroke-miterlimit:4;stroke-opacity:1;stroke-dasharray:none;stroke-dashoffset:0"
         sodipodi:type="arc" />
      <path
         style="fill:none;stroke:#ffffff;stroke-width:1.53163826;stroke-linecap:round;stroke-linejoin:miter;stroke-miterlimit:4;stroke-opacity:1;stroke-dasharray:none"
         d="m 188.38071,1327.2139 -0.1091,-7.7533"
         id="path5895"
         inkscape:connector-curvature="0"
         sodipodi:nodetypes="cc" />
      <path
         sodipodi:nodetypes="cc"
         inkscape:connector-curvature="0"
         id="path5897"
         d="m 204.66943,1312.693 -0.10911,-7.7533"
         style="fill:none;stroke:#ffffff;stroke-width:1.53163826;stroke-linecap:round;stroke-linejoin:miter;stroke-miterlimit:4;stroke-opacity:1;stroke-dasharray:none" />
      <path
         sodipodi:nodetypes="cc"
         inkscape:connector-curvature="0"
         id="path5899"
         d="m 191.78043,1315.8084 9.12763,-0.094"
         style="fill:none;stroke:#ffffff;stroke-width:1.54628432;stroke-linecap:round;stroke-linejoin:miter;stroke-miterlimit:4;stroke-opacity:1;stroke-dasharray:none" />
      <path
         sodipodi:nodetypes="cc"
         inkscape:connector-curvature="0"
         id="path5915"
         d="m 204.66942,1327.2139 -0.1091,-7.7533"
         style="fill:none;stroke:#ffffff;stroke-width:1.53163826;stroke-linecap:round;stroke-linejoin:miter;stroke-miterlimit:4;stroke-opacity:1;stroke-dasharray:none" />
      <path
         style="fill:none;stroke:#ffffff;stroke-width:1.59943235;stroke-linecap:round;stroke-linejoin:miter;stroke-miterlimit:4;stroke-opacity:1;stroke-dasharray:none"
         d="m 219.0397,1327.2323 -0.0413,-22.3283"
         id="path5935"
         inkscape:connector-curvature="0"
         sodipodi:nodetypes="cc" />
      <path
         sodipodi:nodetypes="cc"
         inkscape:connector-curvature="0"
         id="path5969"
         d="m 232.89285,1313.3507 -10.89977,-9.902"
         style="fill:none;stroke:#ffffff;stroke-width:1.5;stroke-linecap:round;stroke-linejoin:miter;stroke-miterlimit:4;stroke-opacity:1;stroke-dasharray:none" />
      <path
         sodipodi:nodetypes="cc"
         inkscape:connector-curvature="0"
         id="path5963"
         d="m 222.76818,1301.2587 25.2326,-0.036"
         style="fill:none;stroke:#ffffff;stroke-width:1.60374355;stroke-linecap:round;stroke-linejoin:miter;stroke-miterlimit:4;stroke-opacity:1;stroke-dasharray:none" />
      <path
         sodipodi:type="arc"
         style="fill:none;stroke:#7fb702;stroke-width:2.1361165;stroke-linecap:round;stroke-linejoin:round;stroke-miterlimit:4;stroke-opacity:1;stroke-dasharray:none;stroke-dashoffset:0"
         id="path5923"
         sodipodi:cx="167.8125"
         sodipodi:cy="949.00519"
         sodipodi:rx="3.4375"
         sodipodi:ry="3.4375"
         d="m 171.25,949.00519 c 0,1.89848 -1.53902,3.4375 -3.4375,3.4375 -1.89848,0 -3.4375,-1.53902 -3.4375,-3.4375 0,-1.89848 1.53902,-3.4375 3.4375,-3.4375 1.89848,0 3.4375,1.53902 3.4375,3.4375 z"
         transform="matrix(0.86041671,0,0,0.81599457,74.854256,526.89158)" />
      <path
         sodipodi:type="arc"
         style="fill:none;stroke:#ffffff;stroke-width:2.1361165;stroke-linecap:round;stroke-linejoin:round;stroke-miterlimit:4;stroke-opacity:1;stroke-dasharray:none;stroke-dashoffset:0"
         id="path5927"
         sodipodi:cx="167.8125"
         sodipodi:cy="949.00519"
         sodipodi:rx="3.4375"
         sodipodi:ry="3.4375"
         d="m 171.25,949.00519 c 0,1.89848 -1.53902,3.4375 -3.4375,3.4375 -1.89848,0 -3.4375,-1.53902 -3.4375,-3.4375 0,-1.89848 1.53902,-3.4375 3.4375,-3.4375 1.89848,0 3.4375,1.53902 3.4375,3.4375 z"
         transform="matrix(0.86041671,0,0,0.81599457,74.605917,556.46607)" />
      <path
         sodipodi:type="arc"
         style="fill:none;stroke:#ffffff;stroke-width:2.1361165;stroke-linecap:round;stroke-linejoin:round;stroke-miterlimit:4;stroke-opacity:1;stroke-dasharray:none;stroke-dashoffset:0"
         id="path5929"
         sodipodi:cx="167.8125"
         sodipodi:cy="949.00519"
         sodipodi:rx="3.4375"
         sodipodi:ry="3.4375"
         d="m 171.25,949.00519 c 0,1.89848 -1.53902,3.4375 -3.4375,3.4375 -1.89848,0 -3.4375,-1.53902 -3.4375,-3.4375 0,-1.89848 1.53902,-3.4375 3.4375,-3.4375 1.89848,0 3.4375,1.53902 3.4375,3.4375 z"
         transform="matrix(0.86041671,0,0,0.81599457,91.020896,541.31378)" />
      <path
         sodipodi:type="arc"
         style="fill:none;stroke:#ffffff;stroke-width:2.1361165;stroke-linecap:round;stroke-linejoin:round;stroke-miterlimit:4;stroke-opacity:1;stroke-dasharray:none;stroke-dashoffset:0"
         id="path5957"
         sodipodi:cx="167.8125"
         sodipodi:cy="949.00519"
         sodipodi:rx="3.4375"
         sodipodi:ry="3.4375"
         d="m 171.25,949.00519 c 0,1.89848 -1.53902,3.4375 -3.4375,3.4375 -1.89848,0 -3.4375,-1.53902 -3.4375,-3.4375 0,-1.89848 1.53902,-3.4375 3.4375,-3.4375 1.89848,0 3.4375,1.53902 3.4375,3.4375 z"
         transform="matrix(0.86041671,0,0,0.81599457,107.44947,556.46607)" />
      <path
         sodipodi:type="arc"
         style="fill:none;stroke:#ffffff;stroke-width:2.1361165;stroke-linecap:round;stroke-linejoin:round;stroke-miterlimit:4;stroke-opacity:1;stroke-dasharray:none;stroke-dashoffset:0"
         id="path5959"
         sodipodi:cx="167.8125"
         sodipodi:cy="949.00519"
         sodipodi:rx="3.4375"
         sodipodi:ry="3.4375"
         d="m 171.25,949.00519 c 0,1.89848 -1.53902,3.4375 -3.4375,3.4375 -1.89848,0 -3.4375,-1.53902 -3.4375,-3.4375 0,-1.89848 1.53902,-3.4375 3.4375,-3.4375 1.89848,0 3.4375,1.53902 3.4375,3.4375 z"
         transform="matrix(0.86041671,0,0,0.81599457,107.44947,527.04538)" />
      <path
         sodipodi:nodetypes="cc"
         inkscape:connector-curvature="0"
         id="path5965"
         d="m 251.71827,1327.2323 -0.0413,-22.3283"
         style="fill:none;stroke:#ffffff;stroke-width:1.59943235;stroke-linecap:round;stroke-linejoin:miter;stroke-miterlimit:4;stroke-opacity:1;stroke-dasharray:none" />
      <path
         style="fill:none;stroke:#ffffff;stroke-width:1.5;stroke-linecap:round;stroke-linejoin:miter;stroke-miterlimit:4;stroke-opacity:1;stroke-dasharray:none"
         d="m 237.67563,1313.4276 11.20677,-9.5532"
         id="path5967"
         inkscape:connector-curvature="0"
         sodipodi:nodetypes="cc" />
      <path
         style="fill:none;stroke:#ffffff;stroke-width:1.53163826;stroke-linecap:round;stroke-linejoin:miter;stroke-miterlimit:4;stroke-opacity:1;stroke-dasharray:none"
         d="m 266.595,1312.1879 -0.1091,-7.7533"
         id="path5971"
         inkscape:connector-curvature="0"
         sodipodi:nodetypes="cc" />
      <path
         sodipodi:nodetypes="cc"
         inkscape:connector-curvature="0"
         id="path5973"
         d="m 270.4998,1301.4137 9.12762,-0.094"
         style="fill:none;stroke:#ffffff;stroke-width:1.54628432;stroke-linecap:round;stroke-linejoin:miter;stroke-miterlimit:4;stroke-opacity:1;stroke-dasharray:none" />
      <path
         transform="matrix(0.86041671,0,0,0.81599457,122.37566,527.01785)"
         d="m 171.25,949.00519 c 0,1.89848 -1.53902,3.4375 -3.4375,3.4375 -1.89848,0 -3.4375,-1.53902 -3.4375,-3.4375 0,-1.89848 1.53902,-3.4375 3.4375,-3.4375 1.89848,0 3.4375,1.53902 3.4375,3.4375 z"
         sodipodi:ry="3.4375"
         sodipodi:rx="3.4375"
         sodipodi:cy="949.00519"
         sodipodi:cx="167.8125"
         id="path5975"
         style="fill:none;stroke:#7fb702;stroke-width:2.1361165;stroke-linecap:round;stroke-linejoin:round;stroke-miterlimit:4;stroke-opacity:1;stroke-dasharray:none;stroke-dashoffset:0"
         sodipodi:type="arc" />
      <path
         sodipodi:type="arc"
         style="fill:none;stroke:#ffffff;stroke-width:2.1361165;stroke-linecap:round;stroke-linejoin:round;stroke-miterlimit:4;stroke-opacity:1;stroke-dasharray:none;stroke-dashoffset:0"
         id="path5977"
         sodipodi:cx="167.8125"
         sodipodi:cy="949.00519"
         sodipodi:rx="3.4375"
         sodipodi:ry="3.4375"
         d="m 171.25,949.00519 c 0,1.89848 -1.53902,3.4375 -3.4375,3.4375 -1.89848,0 -3.4375,-1.53902 -3.4375,-3.4375 0,-1.89848 1.53902,-3.4375 3.4375,-3.4375 1.89848,0 3.4375,1.53902 3.4375,3.4375 z"
         transform="matrix(0.86041671,0,0,0.81599457,122.12732,541.44005)" />
      <path
         transform="matrix(0.86041671,0,0,0.81599457,122.12732,556.59234)"
         d="m 171.25,949.00519 c 0,1.89848 -1.53902,3.4375 -3.4375,3.4375 -1.89848,0 -3.4375,-1.53902 -3.4375,-3.4375 0,-1.89848 1.53902,-3.4375 3.4375,-3.4375 1.89848,0 3.4375,1.53902 3.4375,3.4375 z"
         sodipodi:ry="3.4375"
         sodipodi:rx="3.4375"
         sodipodi:cy="949.00519"
         sodipodi:cx="167.8125"
         id="path5979"
         style="fill:none;stroke:#ffffff;stroke-width:2.1361165;stroke-linecap:round;stroke-linejoin:round;stroke-miterlimit:4;stroke-opacity:1;stroke-dasharray:none;stroke-dashoffset:0"
         sodipodi:type="arc" />
      <path
         transform="matrix(0.86041671,0,0,0.81599457,138.5423,541.44005)"
         d="m 171.25,949.00519 c 0,1.89848 -1.53902,3.4375 -3.4375,3.4375 -1.89848,0 -3.4375,-1.53902 -3.4375,-3.4375 0,-1.89848 1.53902,-3.4375 3.4375,-3.4375 1.89848,0 3.4375,1.53902 3.4375,3.4375 z"
         sodipodi:ry="3.4375"
         sodipodi:rx="3.4375"
         sodipodi:cy="949.00519"
         sodipodi:cx="167.8125"
         id="path5981"
         style="fill:none;stroke:#ffffff;stroke-width:2.1361165;stroke-linecap:round;stroke-linejoin:round;stroke-miterlimit:4;stroke-opacity:1;stroke-dasharray:none;stroke-dashoffset:0"
         sodipodi:type="arc" />
      <path
         sodipodi:type="arc"
         style="fill:none;stroke:#ffffff;stroke-width:2.1361165;stroke-linecap:round;stroke-linejoin:round;stroke-miterlimit:4;stroke-opacity:1;stroke-dasharray:none;stroke-dashoffset:0"
         id="path5983"
         sodipodi:cx="167.8125"
         sodipodi:cy="949.00519"
         sodipodi:rx="3.4375"
         sodipodi:ry="3.4375"
         d="m 171.25,949.00519 c 0,1.89848 -1.53902,3.4375 -3.4375,3.4375 -1.89848,0 -3.4375,-1.53902 -3.4375,-3.4375 0,-1.89848 1.53902,-3.4375 3.4375,-3.4375 1.89848,0 3.4375,1.53902 3.4375,3.4375 z"
         transform="matrix(0.86041671,0,0,0.81599457,138.5423,556.59234)" />
      <path
         sodipodi:type="arc"
         style="fill:none;stroke:#ffffff;stroke-width:2.1361165;stroke-linecap:round;stroke-linejoin:round;stroke-miterlimit:4;stroke-opacity:1;stroke-dasharray:none;stroke-dashoffset:0"
         id="path5985"
         sodipodi:cx="167.8125"
         sodipodi:cy="949.00519"
         sodipodi:rx="3.4375"
         sodipodi:ry="3.4375"
         d="m 171.25,949.00519 c 0,1.89848 -1.53902,3.4375 -3.4375,3.4375 -1.89848,0 -3.4375,-1.53902 -3.4375,-3.4375 0,-1.89848 1.53902,-3.4375 3.4375,-3.4375 1.89848,0 3.4375,1.53902 3.4375,3.4375 z"
         transform="matrix(0.86041671,0,0,0.81599457,138.5423,527.17165)" />
      <path
         sodipodi:nodetypes="cc"
         inkscape:connector-curvature="0"
         id="path5987"
         d="m 266.595,1327.2139 -0.1091,-7.7533"
         style="fill:none;stroke:#ffffff;stroke-width:1.53163826;stroke-linecap:round;stroke-linejoin:miter;stroke-miterlimit:4;stroke-opacity:1;stroke-dasharray:none" />
      <path
         style="fill:none;stroke:#ffffff;stroke-width:1.53163826;stroke-linecap:round;stroke-linejoin:miter;stroke-miterlimit:4;stroke-opacity:1;stroke-dasharray:none"
         d="m 282.88372,1312.693 -0.10911,-7.7533"
         id="path5989"
         inkscape:connector-curvature="0"
         sodipodi:nodetypes="cc" />
      <path
         style="fill:none;stroke:#ffffff;stroke-width:1.54628432;stroke-linecap:round;stroke-linejoin:miter;stroke-miterlimit:4;stroke-opacity:1;stroke-dasharray:none"
         d="m 269.99472,1315.8084 9.12763,-0.094"
         id="path5991"
         inkscape:connector-curvature="0"
         sodipodi:nodetypes="cc" />
      <path
         style="fill:none;stroke:#ffffff;stroke-width:1.53163826;stroke-linecap:round;stroke-linejoin:miter;stroke-miterlimit:4;stroke-opacity:1;stroke-dasharray:none"
         d="m 282.88371,1327.2139 -0.1091,-7.7533"
         id="path5993"
         inkscape:connector-curvature="0"
         sodipodi:nodetypes="cc" />
    </g>
  </g>
</svg>
